<svg width="31" height="30" viewBox="0 0 31 30" fill="none" xmlns="http://www.w3.org/2000/svg">
<path d="M4.72866 20.3169L8.76466 17.2305C8.53388 16.5296 8.40909 15.7797 8.40909 14.9998C8.40909 14.2198 8.53388 13.4699 8.76466 12.769L4.72866 9.68262C3.94149 11.283 3.5 13.0873 3.5 14.9998C3.5 16.9122 3.94149 18.7165 4.72866 20.3169Z" fill="#FBBC05"/>
<path d="M4.72705 20.314C6.6783 24.2842 10.7566 27.0002 15.5 27.0002C21.5 27.0002 26.9546 22.6365 26.9546 15.0002C26.9546 14.2911 26.8455 13.5275 26.6818 12.8184H15.5V17.4547H21.9364C21.3364 20.4002 18.8273 22.0911 15.5 22.0911C12.349 22.0911 9.68964 20.0545 8.7614 17.221L4.72705 20.314Z" fill="#34A853"/>
<path d="M8.76463 12.7692C9.69583 9.94087 12.3527 7.90909 15.5 7.90909C17.1909 7.90909 18.7182 8.50909 19.9182 9.49091L23.4091 6C21.2818 4.14545 18.5545 3 15.5 3C10.7579 3 6.68053 5.71451 4.72864 9.68286L8.76463 12.7692Z" fill="#EA4335"/>
<path d="M15.5 12.8184H26.6818C26.8455 13.5275 26.9545 14.2911 26.9545 15.0002C26.9545 18.9113 25.5237 21.964 23.3215 24.0115L19.49 21.0452C20.7428 20.2545 21.6144 19.0352 21.9364 17.4547H15.5V12.8184Z" fill="#4285F4"/>
</svg>
